<svg height="24px" width="30px" viewBox="0 0 12 12" xmlns="http://www.w3.org/2000/svg"><path fill="current" stroke="current" d="M11.175.725H1.698a.81.81 0 0 0-.819.802v9.519c0 .442.369.802.819.802h9.477c.455 0 .823-.36.823-.802V1.527a.816.816 0 0 0-.823-.802zm-7 9.478h-1.65V4.897h1.65v5.306zm-.827-6.03a.96.96 0 0 1 0-1.917.96.96 0 0 1 0 1.916zm7.005 6.03h-1.65v-2.58c0-.614-.013-1.408-.856-1.408-.86 0-.99.671-.99 1.363v2.625H5.21V4.897h1.58v.724h.024c.221-.417.758-.855 1.56-.855 1.67 0 1.978 1.097 1.978 2.53v2.907z" fill-rule="nonzero"/></svg>