<svg clip-rule="evenodd" fill-rule="evenodd" stroke-linejoin="round" stroke-miterlimit="2" width="100%" height="100%" viewBox="0 0 88 37" xmlns="http://www.w3.org/2000/svg"><path d="M36.906 18.572a1.956 1.956 0 00-1.846-.211 3.327 3.327 0 00-1.529 1.635l.264-2.426a.226.226 0 000-.052.696.696 0 000-.158.261.261 0 00-.106-.211.417.417 0 00-.421 0c-.556.243-.94.767-1.002 1.371a75.927 75.927 0 00-.739 10.968c-.001 1.654.07 3.308.211 4.956.03.827.582 1.548 1.371 1.793.141.05.298.031.422-.052a.425.425 0 00.106-.37 86.091 86.091 0 01-.369-8.437l.21.159a2.274 2.274 0 002.11.211c1.16-.528 2.109-1.793 2.531-3.692.633-2.636.158-4.745-1.16-5.589zm-.316 4.746c-.264 1.582-.897 2.795-1.688 3.164a.84.84 0 01-.685.105c-.528-.158-.791-1.054-.686-2.214.158-2.268 1.055-3.902 1.951-4.588a.901.901 0 01.633-.211c.264.106.844 1.582.422 3.691zm20.143-3.164l-.686-.422c-3.533-2.214-7.962-5.062-8.067-8.753a7.066 7.066 0 012.003-4.904 6.592 6.592 0 014.641-2.056 4.64 4.64 0 013.48 1.371 5.96 5.96 0 011.687 4.324 7.38 7.38 0 01-1.318 3.954c-.211.264-.211.528-.105.528a.634.634 0 00.632.158c1.688-.211 3.059-2.531 3.059-5.168 0-3.058-1.951-6.644-7.224-6.644a9.233 9.233 0 00-6.539 2.637 8.068 8.068 0 00-2.426 5.695c0 4.745 4.43 7.54 8.015 9.808l1.582 1.054c2.795 1.846 4.061 3.164 3.164 5.01-.685 1.582-3.269 1.898-5.273 1.687s-4.588-.896-5.062-3.269c-.106-.528-.369-.528-.527-.528-.37 0-.528.528-.633 1.055a3.688 3.688 0 00.949 2.689c1.055 1.16 2.637 1.793 4.904 1.899 2.478.158 5.8-.528 7.066-3.059 1.055-1.898 1.371-4.218-3.269-7.171zM16.235 19.1a1.746 1.746 0 001.53-.844.472.472 0 00.105-.264.358.358 0 00-.053-.158.477.477 0 00-.422-.264 7.943 7.943 0 00-1.212-.105c-.052-5.335.195-10.67.738-15.978a.422.422 0 00-.106-.474.422.422 0 00-.421 0 2.057 2.057 0 00-1.213 1.74 102.873 102.873 0 00-1.055 14.659 56.634 56.634 0 00-7.962.369v-1.582a97.552 97.552 0 01.685-12.602.474.474 0 00-.211-.422.424.424 0 00-.422 0 2.059 2.059 0 00-1.265 1.476 81.708 81.708 0 00-1.002 13.447 13.44 13.44 0 00-1.846.422c-.896.263-1.371 1.16-1.582 1.951a.93.93 0 000 .211.477.477 0 00.159.369.58.58 0 00.58.052c.855-.323 1.737-.57 2.636-.738a58.062 58.062 0 00.369 7.013c.211 1.582 1.055 2.11 1.899 2.11a.579.579 0 00.474-.106.425.425 0 00.106-.316.937.937 0 000-.106 86.021 86.021 0 01-.633-9.017 67.627 67.627 0 017.91-.738 78.5 78.5 0 00.421 9.07c.211 1.582 1.055 2.109 1.741 2.215a.634.634 0 00.58-.106.42.42 0 00.105-.316.937.937 0 000-.106 89.162 89.162 0 01-.633-10.81zm68.815 4.007c-1.055-2.267-1.213-3.902-.528-4.482a.578.578 0 00.211-.369.471.471 0 00-.158-.369 1.212 1.212 0 00-.844-.422 1.058 1.058 0 00-.791.316c-.896.844-1.582 2.426-2.109 4.852h-.053a.368.368 0 00-.369.158 1.42 1.42 0 00-.316.949c.011.232.046.461.105.686l.158.527-.052.211c-.053.158-.106.263-.106.422-.259.537-.66.993-1.16 1.318a.84.84 0 01-.685.105c-.422-.158-1.055-1.054-1.213-2.531a4.697 4.697 0 002.426-3.216c.059-.26.095-.525.105-.791a3.483 3.483 0 00-.844-2.321 1.953 1.953 0 00-1.423-.738 1.901 1.901 0 00-1.371.633 6.195 6.195 0 00-1.213 2.057 85.12 85.12 0 01.791-10.125.37.37 0 00-.053-.369.369.369 0 00-.369-.105h-.053a1.74 1.74 0 00-1.002 1.371 62.214 62.214 0 00-.896 13.393 4.748 4.748 0 01-2.109 2.479 1.22 1.22 0 01-1.055 0c-.527-.317-.949-1.582-.897-3.164.106-2.109.897-3.85 1.424-4.219a.318.318 0 01.211-.105c.053 0 .053.053.106.105.263.422.369 1.582-.106 2.901a.316.316 0 00.053.263c.105.106.211.106.369.106.685-.053 1.371-.844 1.371-2.11a2.69 2.69 0 00-1.318-2.214 1.528 1.528 0 00-1.529-.053 2.957 2.957 0 00-1.161 1.055l-1.792 2.267a4.116 4.116 0 00-1.424-2.478 1.316 1.316 0 00-.844-.264.898.898 0 00-1.054-.211c-.95.527-1.899 2.32-2.11 4.113-.422 3.797 1.424 4.851 2.268 5.115a2.057 2.057 0 002.003-.316c.897-.686 1.424-2.11 1.424-3.902v-.844c.153-.221.294-.45.422-.686l-.105.739c-.37 3.849 1.423 4.904 2.531 5.273a2.9 2.9 0 002.32-.264c.451-.277.83-.656 1.107-1.107v.052c0 .832.532 1.576 1.319 1.846a.526.526 0 00.421-.105.422.422 0 00.106-.37c-.791-5.009 1.054-8.7 2.109-9.228a.318.318 0 01.422.053c.248.47.305 1.019.158 1.529a4.644 4.644 0 01-2.373 3.112.739.739 0 00-.369.738c.264 2.109 1.371 3.586 2.9 3.849.755.174 1.55 0 2.162-.474.357-.285.645-.645.844-1.055a3.064 3.064 0 001.846 1.424 2.376 2.376 0 002.109-.633c.949-.791.949-2.268.053-4.324zm-20.724-3.322c.317.053.686.791.844 1.951a1.899 1.899 0 01-.791-1.002 2.07 2.07 0 01-.106-.685.484.484 0 01.053-.264zm.949 3.48c0 1.741-.527 2.953-.949 3.322a.476.476 0 01-.422.159c-.211-.053-1.054-.897-1.054-2.742 0-.211 0-.422.052-.686a8.794 8.794 0 01.317-1.74 2.375 2.375 0 002.056 1.687zM84.1 26.587a.525.525 0 01-.474.106c-.633-.106-1.582-.791-2.215-2.109a.235.235 0 000-.053v-.053l.106-.316c.232-1.147.549-2.275.949-3.375a9.43 9.43 0 00.843 2.795l.106.211c.422 1.054 1.055 2.32.685 2.742zm-54.155-8.015a1.953 1.953 0 00-1.792-.211 3.329 3.329 0 00-1.53 1.635l.264-2.478a.597.597 0 000-.158.263.263 0 00-.105-.211.419.419 0 00-.422 0 1.688 1.688 0 00-1.002 1.371 58.695 58.695 0 00-.58 6.486c-.369 1.054-.844 1.476-1.055 1.476a.265.265 0 01-.105-.105c-.422-.739-.633-3.903.105-6.855a.422.422 0 00-.053-.37.368.368 0 00-.369-.105 1.319 1.319 0 00-.632.369 2.173 2.173 0 00-.739-.844 1.741 1.741 0 00-1.582-.105c-1.16.527-2.109 1.951-2.636 4.06-.844 3.164.211 4.746 1.476 5.273.55.265 1.191.265 1.74 0a2.687 2.687 0 001.108-1.529 2.27 2.27 0 001.371 1.424c.409.166.871.147 1.265-.053v1.846a57.759 57.759 0 00.211 5.009c.022.813.55 1.53 1.319 1.793.14.05.297.03.421-.053a.42.42 0 00.106-.369c-.211-2.215-.369-5.062-.369-8.437a2.266 2.266 0 002.32.369c1.16-.527 2.109-1.793 2.531-3.691.633-2.636.158-4.746-1.213-5.589zm-8.12 3.164c-.106 2.637-.949 4.43-1.582 5.01a.528.528 0 01-.369.158c-.369-.106-.897-.791-.897-2.109a8.73 8.73 0 01.159-1.424c.263-1.793 1.16-3.375 1.792-3.797.159-.105.211-.105.211-.105.317.105.633.843.528 2.109zm7.804 1.582c-.316 1.582-.896 2.795-1.687 3.164a.843.843 0 01-.633.105c-.527-.158-.791-1.054-.686-2.214.159-2.268 1.055-3.902 1.951-4.588a.901.901 0 01.633-.211c.264.106.844 1.582.528 3.691zm14.765-4.429a.423.423 0 00-.106-.317.475.475 0 00-.422-.052c-.527.105-.896.527-1.054 1.318a23.337 23.337 0 00-.369 2.847l-.106 1.055c-.263 2.795-.896 3.058-1.054 3.058-.159 0-.422-.263-.633-.738-.633-1.582-.369-5.378.053-7.382a.424.424 0 00-.053-.369.42.42 0 00-.422-.053c-.53.158-.922.612-1.002 1.16-.738 2.953-.738 6.75.317 8.226a1.53 1.53 0 002.162.369c.316-.226.585-.513.79-.843l.211 3.322c.071.597.106 1.125.106 1.582 0 1.265-.211 1.898-.633 2.214a.844.844 0 01-.791.053c-.791-.316-1.582-1.476-1.898-3.164-.053-.316-.264-.369-.369-.369a.423.423 0 00-.422.264 3.164 3.164 0 00-.106 2.109c.264 1.318 1.055 2.32 1.899 2.636a2.27 2.27 0 002.214-.474c.897-.686 1.951-2.109 1.582-4.851a54.846 54.846 0 010-11.443zm41.816-1.055c-.723 0-1.318-.595-1.318-1.318s.596-1.318 1.319-1.318c.703 0 1.289.562 1.317 1.265l.001.053c0 .723-.595 1.318-1.318 1.318h-.001zm0-2.426l-.053-.001c-.608 0-1.107.5-1.107 1.108 0 .607.499 1.107 1.107 1.107.607 0 1.107-.499 1.107-1.106l.002-.053a1.06 1.06 0 00-1.055-1.055zm.316 1.793l-.211-.527h-.264v.527h-.263v-1.476h.527a.476.476 0 01.475.422.424.424 0 01-.264.422l.264.527zm-.211-1.16h-.264v.422h.264c.158 0 .211-.053.211-.211a.212.212 0 00-.211-.211z" fill="#B8B8B8" fill-rule="nonzero"/></svg>