<svg width="100%" height="100%" viewBox="0 0 159.8 34.7" id="lensabl-logo" version="1.1" xmlns="http://www.w3.org/2000/svg" space="preserve"><path d="M70 33.8c1.5.6 3.2.9 5.2.9 1.2 0 2.3-.1 3.5-.4 1.1-.3 2.1-.7 3-1.3.9-.6 1.6-1.3 2.1-2.2.5-.9.8-2 .8-3.4 0-1.2-.2-2.1-.6-2.9-.4-.8-.9-1.4-1.6-2-.7-.5-1.5-1-2.4-1.3-.9-.3-2-.6-3-.8-.8-.1-1.6-.3-2.3-.5-.8-.2-1.4-.5-2-.7-.6-.3-1.1-.6-1.4-1-.4-.4-.6-.9-.6-1.5s.2-1.2.5-1.7.7-.9 1.2-1.2c.5-.3 1-.5 1.6-.7.6-.1 1.2-.2 1.8-.2 1.3 0 2.4.3 3.3.9.5.3 1 .8 1.5 1.2.3.4.9.5 1.3.2l1.3-.8c.2-.1.4-.4.4-.7 0-.3 0-.5-.2-.7-.7-.9-1.6-1.6-2.6-2.1-1.4-.7-3-1-4.7-1-1.1 0-2.2.2-3.2.5s-2 .7-2.8 1.3c-.8.6-1.5 1.3-2 2.1s-.7 1.8-.7 2.9c0 1.2.2 2.2.7 2.9.4.7 1 1.4 1.8 1.8.7.5 1.6.9 2.6 1.2 1 .3 2.1.6 3.2.8.7.1 1.3.3 1.9.5.6.2 1.2.4 1.7.7.5.3.9.7 1.3 1.1.3.5.5 1.1.5 1.8s-.2 1.3-.5 1.9c-.6.6-1 1-1.6 1.3-.5.3-1.2.6-1.8.7-.7.1-1.3.2-2 .2-1.5 0-2.8-.3-3.8-.9-.7-.4-1.3-1-1.9-1.6-.2-.2-.4-.3-.7-.3-.2 0-.4.1-.6.2L67 30c-.2.2-.3.4-.4.7 0 .3.1.5.2.8 1 1 2.1 1.8 3.2 2.3zM34.3 15.1c-.1-.1-.1-.2-.1-.2 0-.1-.1-.2-.2-.2v-.2c-.4-.6-.7-1-1.1-1.4-1-1-2.2-1.9-3.5-2.4-1.4-.6-2.9-.8-4.5-.8-1.7 0-3.4.3-4.8.9-1.5.6-2.8 1.5-3.8 2.5-1.1 1.1-1.9 2.4-2.5 3.9-.6 1.5-.9 3.2-.9 5 0 1.7.3 3.3.8 4.9.6 1.5 1.3 2.8 2.4 3.9 1 1.1 2.3 2 3.7 2.6 1.5.7 3.2 1 5 1 2.2 0 4.2-.4 5.9-1.1 1.3-.6 2.6-1.5 3.7-2.7.2-.2.3-.5.3-.8 0-.3-.2-.5-.4-.7l-1-.8c-.4-.3-1-.2-1.3.1-.8.8-1.6 1.4-2.6 1.9-1.3.6-2.8 1-4.6 1-1.1 0-2.2-.2-3.2-.6-1-.4-1.8-1-2.5-1.8-.7-.7-1.3-1.6-1.7-2.6-.4-1-.7-2-.8-3.1v-.3h18.6c.3 0 .5-.1.7-.3.2-.2.3-.4.3-.7-.2-2.1-.5-4.7-1.9-7zm-4.7 5.4H16.4v-.4c.3-2.1 1.2-3.9 2.6-5.2 1.4-1.3 3.3-1.9 5.7-1.9 2.3 0 4.2.7 5.5 2 1.3 1.3 2 3 2.1 5.2v.3h-2.7zm116.5 3h.3c1-.1 1.8-.9 1.8-1.9 0-1.1-.9-1.9-1.9-1.9h-.4c-1.3-5.3-5.7-9.2-11.1-9.7-3.5-.3-7 .9-9.5 3.3l-.5.5V1c0-.5-.4-1-1-1h-1.5c-.5 0-1 .4-1 1v17.9l-.5-.2c-2-.9-4.4-.8-6.3.3l-.4.2-.1-.4c-1.5-5.3-6.4-9-12-9-5.8 0-10.8 3.9-12.1 9.5l-.1.3h-.6c-1.1 0-1.9.9-1.9 1.9s.9 1.9 1.9 1.9h.4v.3c.7 6.2 6.1 10.9 12.4 10.9 3.2 0 6.2-1.2 8.5-3.4l.5-.5v2.9c0 .5.4 1 1 1h1.5c.5 0 1-.4 1-1v-9c0-1.9 1.5-3.5 3.4-3.5 1.8 0 3 1.1 3.5 3v.2c1.1 5.9 6.2 10.1 12.2 10.1 6.3 0 11.6-4.7 12.4-11l.1.1zM103 31.2c-5.7.6-10.4-4.2-9.8-9.8.4-4.2 3.8-7.5 8-8 5.7-.6 10.4 4.2 9.8 9.8-.4 4.2-3.8 7.6-8 8zm31.6 0c-5.7.6-10.4-4.2-9.8-9.8.4-4.2 3.8-7.5 8-8 5.7-.6 10.4 4.2 9.8 9.8-.4 4.2-3.8 7.6-8 8zM2.3.1H1c-.5 0-1 .4-1 1v1.5c0 .5.4 1 1 1h1.3c.9 0 1.7.7 1.7 1.7v28.6c0 .5.4 1 1 1h1.4c.5 0 1-.4 1-1V5.1C7.3 2.3 5 .1 2.3.1zm156.6 31.3h-1.3c-.9 0-1.7-.7-1.7-1.7V1c0-.5-.4-1-1-1h-1.4c-.5 0-1 .4-1 1v28.7c0 2.8 2.3 5.1 5.1 5.1h1.3c.5 0 1-.4 1-1v-1.5c-.1-.5-.5-.9-1-.9z" fill="#B8B8B8"/><path d="M96 23.7c-.2-.8-.2-1.7 0-2.7.5-2.3 2.4-4.2 4.7-4.7.9-.2 1.8-.2 2.7 0 .4.1.4.5.1.7-1.1.8-2.5 1.8-3.8 3.1-1.3 1.3-2.3 2.6-3 3.7-.1.4-.6.3-.7-.1zm43.8 0c.2-.8.2-1.7 0-2.7-.5-2.3-2.4-4.2-4.7-4.7-.9-.2-1.8-.2-2.7 0-.4.1-.4.5-.1.7 1.1.8 2.5 1.8 3.8 3.1 1.3 1.3 2.3 2.6 3 3.7.1.4.6.3.7-.1z" fill="#B8B8B8" opacity=".3"/><path d="M52.6 10.7c-3.5 0-6.8 1.4-8.5 3.6v-3.4c0-.5-.4-1-1-1H42c-.5 0-1 .4-1 1v22.9c0 .5.4 1 1 1h1.5c.5 0 1-.4 1-1V23.4c0-1.4.2-2.7.5-3.9.3-1.2.8-2.2 1.4-3.1.6-.9 1.5-1.5 2.5-2s2.2-.7 3.5-.7c2 0 3.5.6 4.5 1.9.9 1.2 1.4 2.9 1.4 5v13.1c0 .5.4 1 1 1h1.5c.5 0 1-.4 1-1V20.3a16 16 0 0 0-.5-3.9c-.3-1.2-.9-2.2-1.6-3-.7-.8-1.7-1.5-2.8-1.9-1.4-.6-2.8-.8-4.3-.8z" fill="#B8B8B8"/></svg>