<svg width="100%" height="100%" viewBox="0 0 133 40" version="1.1" xmlns="http://www.w3.org/2000/svg" space="preserve" fill-rule="evenodd" clip-rule="evenodd" stroke-linejoin="round" stroke-miterlimit="2"><g transform="translate(-5955 -5256)"><g id="Artboard1" transform="matrix(.375 0 0 .2545 1713.01 3918.19)"><path fill="none" d="M11313 5256.47h352v157.166h-352z"/><clipPath id="_clip1"><path d="M11313 5256.47h352v157.166h-352z"/></clipPath><g clip-path="url(#_clip1)"><path fill="none" d="M11306 5256h107v40.301h-107z" transform="matrix(3.28972 0 0 3.89979 -25880.6 -15240.8)"/><path d="M3.846 19.82h6.966A11.29 11.29 0 015.099 10 11.29 11.29 0 0110.812.179H3.846C2.914 1.544.05 4.922.05 10c0 5.078 2.864 8.455 3.796 9.82M28.937.18h-6.965a11.291 11.291 0 015.712 9.821c0 4.208-2.3 7.878-5.712 9.821h6.965c.932-1.365 3.796-4.744 3.796-9.821 0-5.079-2.864-8.455-3.796-9.821" fill="#B8B8B8" fill-rule="nonzero" transform="matrix(2.99526 0 0 4.41332 11328.846 5289.176)"/><path d="M9.518 10a6.875 6.875 0 1013.749-.001A6.875 6.875 0 009.518 10M93.322 7.838c-2.291 0-3.829-1.796-3.829-3.883 0-2.086 1.56-3.905 3.851-3.905s3.828 1.797 3.828 3.883c0 2.087-1.559 3.905-3.85 3.905m0-7.002c-1.721 0-2.946 1.376-2.946 3.097s1.247 3.119 2.968 3.119c1.721 0 2.946-1.376 2.946-3.097S95.043.836 93.322.836m-4.849.129h-4.56v2.688h4.076v.775h-4.076v3.281h-.85V.18h5.409l.001.785zM75.685 7.709h-.86V4.73L71.695.18h1.033l2.538 3.764L77.825.18h.99l-3.13 4.539v2.99zm-7.852.129c-2.173 0-3.775-1.71-3.775-3.883 0-2.152 1.592-3.905 3.808-3.905 1.365 0 2.182.484 2.936 1.194l-.581.625c-.634-.603-1.343-1.033-2.365-1.033-1.667 0-2.916 1.343-2.916 3.097 0 1.753 1.258 3.119 2.916 3.119 1.032 0 1.71-.398 2.43-1.086l.559.548c-.786.797-1.647 1.324-3.012 1.324m36.226-.129l-2.19-2.927H99.72v2.927h-.849V.18h3.239c1.656 0 2.721.892 2.721 2.248 0 1.258-.861 1.989-2.044 2.204l2.313 3.077h-1.041zm-2.02-6.744H99.72V4.02h2.313c1.129 0 1.937-.581 1.937-1.56 0-.936-.71-1.495-1.926-1.495M61.958 7.709l-2.184-2.927h-2.151v2.927h-.85V.18h3.238c1.656 0 2.721.892 2.721 2.248 0 1.258-.86 1.989-2.044 2.204l2.313 3.077h-1.043zM59.946.965h-2.323V4.02h2.313c1.129 0 1.936-.581 1.936-1.56 0-.936-.709-1.495-1.926-1.495M55.021.954h-4.593v2.57h3.842v.775h-3.842v2.635h4.647v.775h-5.497V.18h5.442l.001.774zM43.65 5.643h-.044l-2.742-4.022v6.088h-.83V.179h.861l2.744 4.109L46.382.179h.86v7.53h-.85V1.61L43.65 5.643zm43.781 10.002c1.687.368 2.466.984 2.466 2.153 0 1.308-1.082 2.152-2.586 2.152-1.199 0-2.183-.4-3.093-1.212l.531-.627c.79.714 1.546 1.071 2.595 1.071 1.017 0 1.687-.53 1.687-1.297 0-.714-.377-1.115-1.968-1.45-1.741-.378-2.542-.942-2.542-2.196 0-1.21 1.049-2.076 2.488-2.076 1.103 0 1.893.313 2.661.929l-.498.66c-.703-.573-1.406-.821-2.185-.821-.984 0-1.611.54-1.611 1.232 0 .725.389 1.125 2.055 1.482m-8.966-3.353h.85v6.744h3.723v.784h-4.573v-7.528zM64.29 17.756h-.043l-2.742-4.023v6.089h-.829v-7.53h.861L64.28 16.4l2.742-4.108h.861v7.53h-.849v-6.1l-2.744 4.034zm-6.839 2.065h.849v-7.529h-.849v7.529zm-3.205-7.529h.828v7.529h-.678l-4.861-6.175v6.172h-.828V12.29h.795l4.743 6.034.001-6.032zm22.733 7.529h-.914l-.859-1.938H71.11l-.87 1.937h-.87l3.406-7.529h.796l3.407 7.53zm-3.815-6.539l-1.721 3.838h3.431l-1.71-3.838zM47.22 19.82h-.914l-.859-1.937H41.35l-.87 1.937h-.869l3.406-7.529h.795l3.408 7.529zm-3.816-6.539l-1.72 3.838h3.431l-1.711-3.838z" fill="#B8B8B8" fill-rule="nonzero" transform="matrix(2.99526 0 0 4.41332 11328.846 5289.176)"/></g></g></g></svg>