<svg height="24px" width="24px" viewBox="0 0 30 30" version="1.1" xmlns="http://www.w3.org/2000/svg"><path fill="current" stroke="current" d="M15.236,0.308c-8.015,0 -14.512,6.487 -14.512,14.488c0,6.141 3.822,11.388 9.221,13.498c-0.132,-1.144 -0.239,-2.909 0.047,-4.161c0.263,-1.133 1.697,-7.202 1.697,-7.202c0,0 -0.43,-0.871 -0.43,-2.147c0,-2.015 1.17,-3.517 2.627,-3.517c1.242,0 1.84,0.93 1.84,2.039c0,1.24 -0.789,3.1 -1.207,4.829c-0.346,1.443 0.729,2.623 2.15,2.623c2.58,0 4.563,-2.718 4.563,-6.63c0,-3.47 -2.497,-5.89 -6.068,-5.89c-4.132,0 -6.557,3.088 -6.557,6.284c0,1.24 0.478,2.576 1.075,3.303c0.119,0.143 0.131,0.274 0.095,0.417c-0.107,0.453 -0.358,1.443 -0.406,1.646c-0.059,0.262 -0.215,0.322 -0.489,0.191c-1.816,-0.847 -2.95,-3.482 -2.95,-5.617c0,-4.567 3.32,-8.764 9.591,-8.764c5.028,0 8.946,3.577 8.946,8.371c0,4.996 -3.154,9.015 -7.525,9.015c-1.469,0 -2.855,-0.764 -3.321,-1.67c0,0 -0.728,2.767 -0.907,3.446c-0.323,1.264 -1.207,2.838 -1.804,3.804c1.362,0.418 2.795,0.644 4.3,0.644c8.014,0 14.512,-6.487 14.512,-14.488c0.024,-8.025 -6.474,-14.512 -14.488,-14.512Z"/></svg>