<svg height="18" style="enable-background:new 0 0 56.6934 56.6934" width="18" viewBox="0 0 60 60" xml:space="preserve" xmlns="http://www.w3.org/2000/svg"><path d="M39.332 18.062 12.674 3.79a5.094 5.094 0 0 0-4.187-.305l22.711 22.711 8.134-8.134zM49.273 23.384l-7.679-4.11-8.66 8.659 8.66 8.66 7.679-4.112c3.632-1.944 3.632-7.152 0-9.097zM6.408 4.88A5.09 5.09 0 0 0 5.08 8.338v39.188c0 1.37.513 2.564 1.328 3.46L29.46 27.933 6.408 4.879zM8.487 52.38c1.3.475 2.802.437 4.187-.305l26.658-14.271-8.134-8.134L8.487 52.38z"/></svg>