<svg xmlns="http://www.w3.org/2000/svg" fill="none" height="30px" width="30px" viewBox="0 0 20 20"><path fill="#000" d="M1 9.5a8.5 8.5 0 1 1 17 0 8.5 8.5 0 0 1-17 0Z"/><path fill="#fff" d="M13.219 8.198c0 .51-.417.93-.93.93a.932.932 0 0 1-.93-.93c0 .51-.416.93-.93.93a.932.932 0 0 1-.929-.93c0 .51-.416.93-.93.93a.932.932 0 0 1-.93-.93c0 .51-.416.93-.93.93a.932.932 0 0 1-.929-.93l.517-2.015s.108-.402.487-.402h5.43c.379 0 .487.402.487.402l.517 2.015Zm-.372 1.376v2.901c0 .41-.335.744-.744.744H6.897a.746.746 0 0 1-.744-.744v-2.9a1.473 1.473 0 0 0 1.487-.216 1.489 1.489 0 0 0 1.86 0 1.49 1.49 0 0 0 1.86 0 1.48 1.48 0 0 0 1.487.215Zm-.744 1.908c0-.074 0-.152-.018-.234l-.012-.06H10.97v.435h.673a.52.52 0 0 1-.115.231.657.657 0 0 1-.469.19.729.729 0 0 1-.502-.209.687.687 0 0 1 .008-.959c.256-.26.68-.26.948-.011l.052.048.312-.316-.06-.052a1.134 1.134 0 0 0-.773-.301h-.003c-.302 0-.584.115-.796.323a1.11 1.11 0 0 0-.342.792c0 .298.115.573.327.778.216.212.517.338.825.338h.008c.297 0 .561-.108.755-.297.175-.179.286-.447.286-.696h-.001Z"/></svg>