<svg height="24px" width="24px" viewBox="0 0 13 13" xmlns="http://www.w3.org/2000/svg"><g transform="translate(.074 .32)" fill="current" fill-rule="evenodd"><path d="M6.235 1.18c1.56 0 1.744.003 2.362.032.57.024.88.123 1.085.2.275.107.467.234.672.438.204.205.331.398.438.672.082.205.176.516.2 1.085.03.614.033.802.033 2.362s-.004 1.744-.033 2.362c-.024.57-.122.88-.2 1.085a1.803 1.803 0 0 1-.438.672 1.803 1.803 0 0 1-.672.438c-.204.082-.516.176-1.085.2-.614.029-.802.033-2.362.033s-1.744-.004-2.362-.033c-.57-.024-.88-.123-1.085-.2a1.803 1.803 0 0 1-.671-.438 1.803 1.803 0 0 1-.438-.672c-.082-.204-.177-.516-.201-1.085-.029-.614-.033-.802-.033-2.362s.004-1.744.033-2.362c.024-.57.123-.88.2-1.085.107-.274.234-.467.439-.672.204-.204.397-.331.671-.438.205-.081.516-.176 1.085-.2.618-.029.802-.033 2.362-.033zm0-1.053c-1.588 0-1.785.008-2.407.037C3.206.192 2.78.29 2.41.434a2.83 2.83 0 0 0-1.035.675C1.052 1.433.852 1.76.7 2.145c-.143.373-.241.799-.27 1.417-.029.622-.037.823-.037 2.407 0 1.589.008 1.785.037 2.407C.459 9 .557 9.424.7 9.793c.147.385.348.708.676 1.036.323.323.65.524 1.035.675.373.143.799.242 1.417.27.622.029.823.037 2.407.037 1.585 0 1.785-.008 2.407-.037.623-.028 1.049-.127 1.417-.27a2.83 2.83 0 0 0 1.036-.675c.327-.328.524-.651.675-1.036.144-.373.242-.798.27-1.417.03-.622.037-.823.037-2.407 0-1.588-.008-1.785-.037-2.407-.028-.623-.126-1.048-.27-1.417a2.83 2.83 0 0 0-.675-1.036 2.882 2.882 0 0 0-1.036-.675C9.686.291 9.261.192 8.642.164 8.024.13 7.824.127 6.235.127z"/><path d="M6.235 2.968a3 3 0 1 0 0 6.002 3 3 0 1 0 0-6.002zm0 4.946a1.948 1.948 0 1 1-.001-3.897 1.948 1.948 0 0 1 .001 3.897z"/><circle cx="9.355" cy="2.849" r="1"/></g></svg>