<svg height="30px" width="30px" viewBox="0 0 14 11" xmlns="http://www.w3.org/2000/svg"><path fill="current" stroke="current" d="M4.475 10.398c4.745 0 7.34-3.934 7.34-7.34 0-.111 0-.226-.003-.332a5.277 5.277 0 0 0 1.29-1.339 5.089 5.089 0 0 1-1.483.405c.536-.319.942-.822 1.134-1.428-.5.294-1.048.507-1.637.626a2.579 2.579 0 0 0-4.393 2.354A7.313 7.313 0 0 1 1.405.646a2.57 2.57 0 0 0-.348 1.294c0 .892.454 1.687 1.15 2.145a2.56 2.56 0 0 1-1.167-.32V3.8c0 1.252.889 2.288 2.072 2.53a2.62 2.62 0 0 1-.68.09c-.168 0-.327-.017-.487-.05a2.575 2.575 0 0 0 2.407 1.794 5.175 5.175 0 0 1-3.82 1.064 7.175 7.175 0 0 0 3.943 1.171" fill-rule="evenodd"/></svg>